<?xml version="1.0" encoding="UTF-8"?> <!-- Generator: Adobe Illustrator 24.0.2, SVG Export Plug-In . SVG Version: 6.00 Build 0) --> <svg xmlns="http://www.w3.org/2000/svg" xmlns:xlink="http://www.w3.org/1999/xlink" version="1.1" id="Layer_1" x="0px" y="0px" viewBox="0 0 347.45 347.45" style="enable-background:new 0 0 347.45 347.45;" xml:space="preserve"> <style type="text/css"> .st0{fill:#73777B;} .st1{fill:#242429;} .st2{fill:#F9D01B;} .st3{fill:#242E38;} .st4{fill:#D3D2DA;} .st5{fill:#ACAFBA;} .st6{fill:#4E535C;} .st7{fill:#FFFFFF;} .st8{fill:#A6A8AB;} .st9{fill:url(#SVGID_1_);} </style> <g> <path id="XMLID_1629_" className="st0" d="M62.54,88.85v222.48h222.37V88.85H62.54z M264.69,291.09H82.77V109.07h181.91V291.09z"></path> <g> <polygon className="st1" points="104.59,37.45 112.85,43.87 114.07,45.3 114.55,57.84 111.28,61.99 102.82,64.78 "></polygon> <path className="st2" d="M169.19,72.63c-0.48,9.8,13.94,16.8,13.94,16.8s5.34-4.29,6.96-8.45c4.73,1.24,4.35,44.49,4.35,44.49 s10.79,44.97,3.7,50.87c-7.09,5.9-17.63,3.74-23.2,3.74c-5.57,0-20.55,2.69-26.19-0.84s5.66-46.38,5.66-46.38 S157.59,70.97,169.19,72.63z"></path> <g> <path className="st3" d="M147.56,167.78c-3.66,25.3-6.67,59.39-8.49,93.19h26.89c0,0,1.97-10.15,7.14-35.67 c8.8,60.54,5.79,30.85,5.79,30.85l24.87-0.46c0,0,4.88-56.39-2.06-86.43C181.23,175.07,147.56,167.78,147.56,167.78z"></path> <path className="st3" d="M138.98,305.11h22.8c1.88-21.36,4.18-44.13,4.18-44.13l-15.18-13.22l-11.71,13.22 C139.08,260.97,139.11,283.84,138.98,305.11z"></path> <path className="st3" d="M205.43,305.11c-0.63-23.66-1.67-49.41-1.67-49.41l-11.86-7.95l-13,8.4c0,0,0.88,25.76,1.9,48.95H205.43z"></path> </g> <path className="st3" d="M173.95,51.45c1.95-9.01,8.78-12.85,11.6-13.62c10.36-2.83,10.35,2.91,17.44,7.64 c1.08,0.72,2.02,5.33,0.43,10.88c-1.59,5.55-5.84,10.09-5.84,10.09l-0.5-2.45c0,0,4.54-6.92,3.24-10.95 c-1.3-4.04-12.86-3.69-14.88-3.83s-3.35-6.69-6.23-4.74C176.33,46.4,173.95,51.45,173.95,51.45z"></path> <g> <path className="st4" d="M186.06,48.2c9.22,0.22,20.39,1.44,11.03,15.78l0.5,2.45c1.87-3.46,6.41-3.68,2.67,2.67 s-9.08,8.86-10.81,13.33c-1.95,3.31-5.77,3.24-8.94,2.81c-3.17-0.43-9.01-6.77-10.88-7.99c-0.35-0.54-0.43-4.62-0.43-4.62 s0.36-5.33,1.15-8.72c0.79-3.39,1.97-9.57,3.6-12.47C175.58,48.55,179.79,38.04,186.06,48.2z"></path> </g> <g> <path className="st5" d="M197.59,66.43l-0.5-2.45c9.37-14.34-1.8-15.57-11.03-15.78c-1.34-2.18-2.59-3.4-3.74-3.96 c0.43,0.57,0.83,1.17,1.18,1.81c3.13,5.79,2.37,13.42-0.31,19.19c-1.57,3.38-3.83,6.25-6.1,9.17c-0.92,1.19-2.29,2.57-2.9,3.97 c-0.4,0.9-0.49,1.68-0.42,2.44c2.3,2.03,4.95,4.17,6.75,4.41c3.17,0.43,6.99,0.5,8.94-2.81c1.73-4.47,7.06-6.99,10.81-13.33 C204,62.76,199.46,62.98,197.59,66.43z"></path> </g> <g> <path className="st0" d="M169.44,77.31c1.04,1.98,7.95,13.18,11.12,13.62c3.17,0.43,11.13-12.09,12.87-13.82l-0.95-3.64 c-8.73,8.32-22.45,8.32-23.3-0.84C169.19,72.63,168.69,75.88,169.44,77.31z"></path> </g> <path className="st3" d="M169.19,72.63c0,0-4.16-1.27-5.4,1.2c-1.24,2.47-5.2,3.55-5.2,3.55l0.49,1.4c0,0-3.87-3.44-5.3-4.12 c-1.43-0.68-6.82-2.85-10.7-2.62c-3.89,0.23-5.11,8.69-9.2,8.62c0,0,0.14,9.33-2.1,14.02c-2.24,4.69-7.95,8.56-5.4,9.38 c2.55,0.82,6.83,0.71,7.85,3.36c1.02,2.65,4.08,10.8,1.73,18.35c-2.34,7.54-11.21,33.53-20.54,50.65 c6.12,5.35,16.36,14.52,28.13,10.85c11.77-3.67,21.1-20.94,26.29-37.15s6.98-32.49,6.88-42.78s0.64-15.26-3.14-21.9 C169.81,78.82,167.54,75.3,169.19,72.63z"></path> <path className="st3" d="M210.84,123.15c-1.78-22.45-7.92-32.45-7.92-32.45l-6.32-5.48c-2.19,1.4-4.11-0.2-2.71-2.35l-0.51-0.44 c0,0-1.74-0.64-2.74-1.1c-1.11,3.54-4.5,6.12-4.5,6.12l1.28,0.97l1.68,22.23c0,0,3.81,47.58,10.37,64.85 c1.31,3.44,22.11,17.48,22.11,17.48S212.61,145.6,210.84,123.15z"></path> <path className="st1" d="M205.28,74.49c0,0-6.11,11.06-10.84,11.42c6.67,8.97,17.45,30.18,21.21,33.21s10.79,6.54,14.91,1.45 s3.15-7.27,0-12.85c-3.15-5.58-14.3-17.82-14.3-17.82l-0.48-2.46L205.28,74.49z"></path> <polygon className="st1" points="189.53,61.32 175.94,58.33 173.97,65.99 184.46,65.59 "></polygon> <path className="st6" d="M177.35,62.15L177.35,62.15c-0.4,2.96-2.55,5.09-4.92,4.84l-27.38-2.89l2.64-12.92l25.9,4.45 C176.09,56.05,177.78,59,177.35,62.15z"></path> <path className="st1" d="M149.91,58.96L149.91,58.96c-0.81,4.19-4.22,7.07-7.93,6.63l-43.19-5.06l1.6-18.98l43.52,7.28 C148.09,49.53,150.83,54.2,149.91,58.96z"></path> <path className="st7" d="M118.98,67.77c-1.89,6.26-5.09,17.24,3.2,15.14s12.14-6.65,12.19-11.79c0.05-5.14-4.52-5.24-4.52-5.24 L118.98,67.77z"></path> <path className="st5" d="M119.34,67.7c-1.89,6.26,0.83,10.3,4.34,10.28c4.08-0.03,9.82-1.61,9.87-6.75c0.05-5.14-3.69-5.36-3.69-5.36 L119.34,67.7z"></path> <path className="st1" d="M126.38,104.06c-7.59-0.65-12.4-5.9-13.22-12.35c-1.29-10.17,1.57-16.56,5.82-23.95c0,0-2.4,8.98,1.83,11.34 c4.28,2.39,13.07-1.12,13.57-8l0,0c1.37,4.15-1.74,14.96,1.31,21.36C139.15,99.73,132.7,104.06,126.38,104.06z"></path> <path className="st4" d="M124.5,55.5c-10.58,3.77-11.08,8.08-8.93,8.3c2.15,0.23,0.68,1.7,1.24,3.39s3.02,0.9,2.7,3.62 c-0.32,2.71,2.5,0.23,3.29,2.94s5.43-0.68,7.01-3.05c1.58-2.37,3.51-6.22,0.9-6.67c1.28-1.24,0.57-3.51-3.51-2.26 c-4.07,1.24,3.73-0.34,5.31-2.04c1.58-1.7-4.07-2.83-6.11-2.04C127.78,56.83,127.95,54.27,124.5,55.5z"></path> <ellipse className="st2" cx="116.87" cy="77.35" rx="0.56" ry="1.22"></ellipse> <ellipse className="st2" cx="116.72" cy="74.57" rx="0.42" ry="0.91"></ellipse> <circle className="st2" cx="205.28" cy="81.52" r="1.02"></circle> <circle className="st2" cx="207.62" cy="83.71" r="1.02"></circle> <path className="st4" d="M201.18,74.71c-6.26-7.47-1.59-13.82-8.99-13.52l0,0c-3.9-1.33-7.36-1.42-5.83,0.33 c-1.69,0.25-8.67,4.32-9.2,4.54c0,0-0.74,2.29,2.14,1.4c2.88-0.89,1.85-0.07,0.89,0.59c-0.96,0.66,0.3,1.55,3.69,0.59 c3.4-0.96,7.16,0,7.16,0c-2.52,9.69,1.92,6.66,5.27,13.72c0.13,0.26,0.48,0.31,0.69,0.11C198.56,80.6,203.37,77.66,201.18,74.71z"></path> <polygon className="st6" points="142.35,257.27 149.06,190.73 152.08,191.35 "></polygon> <path className="st6" d="M163.23,89.8c9.1,14.26,10.17,34.34,5.26,50.36c2.34-13.96,2.06-36.66-5.8-48.73L163.23,89.8z"></path> <path className="st8" d="M112.84,45c0.37,1.14,0.62,2.35,0.74,3.6l30.92,4.04L112.84,45z"></path> <path className="st6" d="M110.39,52.04c-0.92,7.85-5.85,13.89-11.18,13.48c-5.51-0.43-9.32-7.55-8.34-15.9s6.32-14.33,11.77-13.41 C107.9,37.11,111.3,44.19,110.39,52.04z"></path> <path className="st8" d="M107.66,51.82c-0.75,6.39-4.76,11.3-9.1,10.97c-4.48-0.35-7.58-6.15-6.79-12.93 c0.79-6.79,5.14-11.66,9.58-10.91C105.64,39.67,108.41,45.43,107.66,51.82z"></path> <polygon className="st8" points="151.76,53.59 151.76,55.17 173.51,59.09 "></polygon> <polygon className="st8" points="178.58,60.2 178.33,60.99 182.79,61.55 "></polygon> <linearGradient id="SVGID_1_" gradientUnits="userSpaceOnUse" x1="101.394" y1="39.4199" x2="101.394" y2="54.9589"> <stop offset="0" style="stop-color:#FFFFFF"></stop> <stop offset="1" style="stop-color:#FFFFFF;stop-opacity:0"></stop> </linearGradient> <path className="st9" d="M101.35,38.94c-2.3-0.39-4.57,0.74-6.34,2.86l7.47,19.85c2.63-1.78,4.67-5.46,5.18-9.83 C108.41,45.43,105.64,39.67,101.35,38.94z"></path> </g> <polygon className="st0" points="264.69,178.8 264.69,291.09 82.77,291.09 82.77,178.8 62.54,178.8 62.54,311.33 284.91,311.33 284.91,178.8 "></polygon> </g> </svg> 