<svg width="615" height="400" viewBox="0 0 615 400" fill="none" xmlns="http://www.w3.org/2000/svg">
<g clip-path="url(#clip0)">
<path d="M177.608 0V5.68759V102.68H315.627V5.68759V0H177.608Z" fill="url(#paint0_linear)"/>
<path d="M314.744 0H178.492V3.31679H314.744V0Z" fill="#535461"/>
<path d="M314.744 3.22336H178.492V101.39H314.744V3.22336Z" fill="#EDEDF4"/>
<path d="M308.723 18.4993H184.859V84.9401H308.723V18.4993Z" fill="white"/>
<path d="M181.026 2.1781C181.39 2.1781 181.685 1.92451 181.685 1.61168C181.685 1.29885 181.39 1.04526 181.026 1.04526C180.662 1.04526 180.367 1.29885 180.367 1.61168C180.367 1.92451 180.662 2.1781 181.026 2.1781Z" fill="#FA595F"/>
<path d="M183.01 2.1781C183.375 2.1781 183.67 1.92451 183.67 1.61168C183.67 1.29885 183.375 1.04526 183.01 1.04526C182.646 1.04526 182.351 1.29885 182.351 1.61168C182.351 1.92451 182.646 2.1781 183.01 2.1781Z" fill="#FFC74C"/>
<path d="M184.995 2.1781C185.359 2.1781 185.654 1.92451 185.654 1.61168C185.654 1.29885 185.359 1.04526 184.995 1.04526C184.631 1.04526 184.336 1.29885 184.336 1.61168C184.336 1.92451 184.631 2.1781 184.995 2.1781Z" fill="#85D459"/>
<path d="M197.586 24.1927V76.2628H297.796" stroke="#535461" stroke-width="2" stroke-miterlimit="10"/>
<path opacity="0.5" d="M216.803 60.5139H206.454V74.2306H216.803V60.5139Z" fill="#6C63FF"/>
<path opacity="0.7" d="M234.539 48.3212H224.19V74.2307H234.539V48.3212Z" fill="#6C63FF"/>
<path opacity="0.5" d="M252.275 55.6905H241.926V74.2365H252.275V55.6905Z" fill="#6C63FF"/>
<path opacity="0.8" d="M270.017 44.2569H259.668V74.2306H270.017V44.2569Z" fill="#6C63FF"/>
<path d="M287.753 33.5883H277.404V74.2307H287.753V33.5883Z" fill="#6C63FF"/>
<path d="M211.483 52.1343L229.511 38.1606L247.253 51.3693L264.69 35.3693L282.425 29.0161" stroke="#535461" stroke-width="2" stroke-miterlimit="10"/>
<path d="M211.483 53.9153C212.627 53.9153 213.555 53.1179 213.555 52.1343C213.555 51.1507 212.627 50.3533 211.483 50.3533C210.338 50.3533 209.41 51.1507 209.41 52.1343C209.41 53.1179 210.338 53.9153 211.483 53.9153Z" fill="#6C63FF"/>
<path d="M246.954 52.8993C248.099 52.8993 249.027 52.1019 249.027 51.1182C249.027 50.1346 248.099 49.3372 246.954 49.3372C245.809 49.3372 244.882 50.1346 244.882 51.1182C244.882 52.1019 245.809 52.8993 246.954 52.8993Z" fill="#6C63FF"/>
<path d="M264.989 37.1504C266.133 37.1504 267.061 36.353 267.061 35.3693C267.061 34.3857 266.133 33.5883 264.989 33.5883C263.844 33.5883 262.916 34.3857 262.916 35.3693C262.916 36.353 263.844 37.1504 264.989 37.1504Z" fill="#6C63FF"/>
<path d="M229.511 39.6905C230.655 39.6905 231.583 38.8931 231.583 37.9095C231.583 36.9259 230.655 36.1285 229.511 36.1285C228.366 36.1285 227.438 36.9259 227.438 37.9095C227.438 38.8931 228.366 39.6905 229.511 39.6905Z" fill="#6C63FF"/>
<path d="M282.425 30.7971C283.57 30.7971 284.498 29.9997 284.498 29.0161C284.498 28.0324 283.57 27.235 282.425 27.235C281.281 27.235 280.353 28.0324 280.353 29.0161C280.353 29.9997 281.281 30.7971 282.425 30.7971Z" fill="#6C63FF"/>
<path d="M305.964 397.912C474.944 397.912 611.929 364.281 611.929 322.794C611.929 281.308 474.944 247.676 305.964 247.676C136.985 247.676 0 281.308 0 322.794C0 364.281 136.985 397.912 305.964 397.912Z" fill="url(#paint1_linear)"/>
<path d="M371.308 180.204C371.308 180.204 379.761 144.531 412.079 147.837C412.079 147.837 434.375 149.156 438.989 161.711V189.454L371.308 180.204Z" fill="#535461"/>
<path d="M393.121 87.8832H364.58V125.839H393.121V87.8832Z" fill="#FE5858"/>
<path opacity="0.1" d="M393.121 87.8832H364.58V125.839H393.121V87.8832Z" fill="black"/>
<path d="M370.485 101.834C372.262 103.825 373.361 106.201 373.658 108.697C373.956 111.193 373.441 113.711 372.171 115.971C367.808 124.029 370.479 135.632 373.992 137.401C377.505 139.171 391.456 141.583 395.811 136.432C400.167 131.282 399.923 116.403 398.489 114.242C397.055 112.082 386.427 110.254 386.882 98.0555L370.485 101.834Z" fill="#F2B08D"/>
<path opacity="0.1" d="M368.658 116.823C368.658 116.823 374.257 149.08 393.216 126.879L391.646 187.609L357.364 183.679L368.658 116.823Z" fill="black"/>
<path d="M368.61 117.401C368.61 117.401 374.209 149.658 393.168 127.457L391.598 188.187L357.316 184.257L368.61 117.401Z" fill="#F1C413"/>
<path d="M389.539 174.307C389.539 174.307 379.231 175.428 372.096 172.753C372.096 172.753 358.505 175.912 359.864 178.657C361.224 181.401 392.407 181.577 392.407 181.577L389.539 174.307Z" fill="#F2B08D"/>
<path d="M300.977 166.441C300.977 166.441 292.014 167.679 285.544 165.063C281.073 163.253 273.884 165.109 269.875 166.423C269.575 166.523 269.314 166.693 269.122 166.914C268.93 167.135 268.814 167.399 268.789 167.674C268.763 167.949 268.829 168.225 268.977 168.47C269.126 168.714 269.352 168.918 269.63 169.057C275.018 171.684 281.06 173.164 287.25 173.372C300.406 173.956 308.927 173.559 308.927 173.559L300.977 166.441Z" fill="#F2B08D"/>
<path opacity="0.1" d="M387.202 131.877L381.983 175.089L386.821 174.353C386.821 174.353 394.296 179.685 387.827 182.891L425.249 181.898C425.249 181.898 431.174 177.763 428.585 171.124C425.996 164.485 426.954 145.337 426.954 145.337C426.954 145.337 423.101 121.104 415.45 119.837C415.45 119.837 399.977 117.232 390.939 108.59L387.202 131.877Z" fill="black"/>
<path d="M387.875 131.936L382.656 175.147L387.494 174.412C387.494 174.412 394.969 179.743 388.5 182.949L425.921 181.915C425.921 181.915 431.847 177.781 429.258 171.142C426.669 164.502 427.627 145.355 427.627 145.355C427.627 145.355 423.774 121.121 416.123 119.854C416.123 119.854 400.65 117.25 391.612 108.607L387.875 131.936Z" fill="#39447A"/>
<path opacity="0.1" d="M373.142 112.123C373.142 112.123 364.404 118.482 353.334 117.495C353.334 117.495 347.755 118.745 346.186 126.184C344.616 133.623 325.847 159.912 325.847 159.912L297.987 166.166C297.987 166.166 306.012 172.707 302.505 176.479L335.544 172.432C338.593 170.872 341.169 168.712 343.06 166.131L350.535 157.764C350.535 157.764 355.733 173.67 354.102 178.785L352.437 184.175L362.168 185.045C362.168 185.045 362.644 163.895 364.934 155.679C365.926 152.123 366.782 148.549 367.407 144.934C368.997 135.708 371.484 121.676 372.415 119.825L373.142 112.123Z" fill="black"/>
<path d="M373.516 111.866C373.516 111.866 364.777 118.248 353.708 117.238C353.708 117.238 348.129 118.488 346.559 125.927C344.99 133.366 326.214 159.661 326.214 159.661L298.354 165.915C298.354 165.915 306.379 172.455 302.872 176.228L335.911 172.181C338.972 170.618 341.558 168.453 343.454 165.863L350.929 157.495C350.929 157.495 356.127 173.401 354.496 178.517L352.831 183.907L362.542 184.747C362.542 184.747 363.017 163.597 365.307 155.381C366.3 151.825 367.156 148.251 367.781 144.636C369.371 135.41 371.858 121.378 372.789 119.527L373.516 111.866Z" fill="#39447A"/>
<path opacity="0.1" d="M389.58 106.131C387.983 103.965 386.617 103.042 386.774 98.9139L370.384 102.698C372.323 104.875 373.453 107.504 373.625 110.242C374.786 110.558 375.981 110.771 377.192 110.879C381.67 111.282 386.176 108.199 389.58 106.131Z" fill="black"/>
<path opacity="0.1" d="M353.633 138.937C353.633 138.937 356.868 143.025 354.883 145.46C352.899 147.895 352.444 151.65 353.171 154.05" fill="black"/>
<path opacity="0.1" d="M405.916 138.353C405.916 138.353 411.889 161.904 410.272 164.093Z" fill="black"/>
<path opacity="0.1" d="M392.4 170.75C392.4 170.75 409.334 171.872 408.369 168.578Z" fill="black"/>
<path d="M395.077 89.5017C396.095 81.0651 388.961 73.5167 379.144 72.6419C369.326 71.7671 360.542 77.8971 359.524 86.3337C358.506 94.7703 365.64 102.319 375.457 103.193C385.275 104.068 394.059 97.9382 395.077 89.5017Z" fill="#F2B08D"/>
<path d="M374.664 66.0798C380.59 64.4821 386.976 64.6884 392.746 66.6637C395.692 67.6529 398.401 69.1 400.737 70.9323C403.555 73.2763 405.886 76.0176 407.628 79.0375C412.316 86.7513 414.749 95.9426 421.436 102.162C425.886 106.302 431.778 108.667 437.534 110.921C440.931 112.246 444.438 113.578 448.114 113.934C451.79 114.29 455.738 113.554 458.477 111.183C456.112 113.835 452.68 115.359 449.283 116.614C435.908 121.574 421.274 123.499 406.785 122.202C402.708 121.829 398.631 121.186 394.852 119.633C392.134 118.512 389.498 116.754 388.424 114.121C385.951 108.048 392.895 101.601 391.591 95.1951C390.911 91.9075 388.132 89.3557 385.033 87.7791C381.935 86.2024 378.476 85.4433 375.166 84.3922C371.689 83.1826 368.301 81.7922 365.021 80.2287C363.295 79.4462 361.515 78.6229 360.264 77.2448C359.014 75.8666 358.396 73.7411 359.327 72.1703C360.258 70.5995 362.14 70.0331 363.886 69.5426L377.973 65.6243" fill="#FE5858"/>
<path d="M548.114 193.419L260.606 172.94L223.707 179.545L226.011 223.807L228.532 224.07L231.393 290.528L513.526 334.126L543.507 312.327V240.274L547.346 238.342L548.114 193.419Z" fill="#EDEDF4"/>
<path opacity="0.05" d="M548.501 193.419L547.734 238.342L516.598 250.89L516.21 203.988L548.501 193.419Z" fill="black"/>
<path opacity="0.05" d="M543.507 240.321L543.887 311.007L513.907 332.806L515.83 250.891L543.507 240.321Z" fill="black"/>
<path opacity="0.05" d="M228.913 226.709L516.061 256.823L516.21 251.112L228.702 224.467L228.913 226.709Z" fill="black"/>
<path opacity="0.05" d="M543.507 242.914V240.321L515.062 251.112V256.835L543.507 242.914Z" fill="black"/>
<path d="M223.32 179.545L260.218 172.94L547.734 193.419L515.442 203.988L223.32 179.545Z" fill="#F4F4F8"/>
<path d="M577.415 284.672C589.639 284.672 599.548 281.545 599.548 277.688C599.548 273.83 589.639 270.704 577.415 270.704C565.192 270.704 555.283 273.83 555.283 277.688C555.283 281.545 565.192 284.672 577.415 284.672Z" fill="#CD9494"/>
<path opacity="0.05" d="M577.415 280.473C583.653 280.473 588.709 278.878 588.709 276.911C588.709 274.944 583.653 273.349 577.415 273.349C571.178 273.349 566.122 274.944 566.122 276.911C566.122 278.878 571.178 280.473 577.415 280.473Z" fill="black"/>
<path d="M555.29 276.134C555.29 276.134 579.678 287.778 599.554 277.688C599.554 277.688 596.836 318.05 583.293 321.933H565.225C565.225 321.933 549.867 294.762 555.29 276.134Z" fill="#FF7361"/>
<path d="M596.53 202.172C602.734 221.67 576.267 277.215 576.267 277.215C576.267 277.215 520.546 241.01 514.369 221.489C511.517 212.163 513.064 202.246 518.673 193.894C524.282 185.542 533.5 179.429 544.324 176.885C555.147 174.34 566.702 175.568 576.478 180.303C586.253 185.039 593.46 192.897 596.53 202.172V202.172Z" fill="#85D459"/>
<path d="M544.438 176.642C544.438 176.642 579.094 221.606 576.491 277.326" stroke="#535461" stroke-miterlimit="10"/>
<path opacity="0.05" d="M596.592 279.007C595.674 288.292 591.93 317.133 580.582 320.38H564.362C564.878 321.372 565.191 321.933 565.191 321.933H583.259C596.809 318.05 599.52 277.688 599.52 277.688C598.57 278.169 597.593 278.61 596.592 279.007Z" fill="black"/>
<path d="M469.703 107.539C483.713 107.539 495.07 97.7791 495.07 85.7401C495.07 73.7011 483.713 63.9416 469.703 63.9416C455.694 63.9416 444.337 73.7011 444.337 85.7401C444.337 97.7791 455.694 107.539 469.703 107.539Z" fill="#535461"/>
<path d="M469.703 104.239C481.593 104.239 491.231 95.957 491.231 85.7401C491.231 75.5233 481.593 67.2409 469.703 67.2409C457.814 67.2409 448.176 75.5233 448.176 85.7401C448.176 95.957 457.814 104.239 469.703 104.239Z" fill="#EDEDF4"/>
<path d="M469.703 87.0599C470.551 87.0599 471.239 86.469 471.239 85.7402C471.239 85.0113 470.551 84.4204 469.703 84.4204C468.855 84.4204 468.168 85.0113 468.168 85.7402C468.168 86.469 468.855 87.0599 469.703 87.0599Z" fill="#535461"/>
<path d="M478.931 71.8657L469.703 85.7401" stroke="#535461" stroke-miterlimit="10" stroke-linecap="round"/>
<path d="M470.145 85.8861L479.312 90.0321" stroke="#535461" stroke-width="2" stroke-miterlimit="10" stroke-linecap="round"/>
<path d="M134.412 303.873C134.412 303.873 135.01 313.619 139.78 316.182C144.55 318.746 154.105 327.978 146.942 330.541C139.78 333.105 130.831 333.619 126.652 323.365L118.892 319.277L120.088 306.43L134.412 303.873Z" fill="#1A2246"/>
<path d="M53.2491 309.026C53.2491 309.026 53.2491 318.772 47.8809 322.871C42.5126 326.97 37.1375 334.153 44.2997 336.202C51.462 338.252 61.0093 336.716 62.2053 330.562L62.8033 325.948L71.1547 323.385L68.7695 309.026H53.2491Z" fill="#1A2246"/>
<path d="M69.1448 72.7659V72.8944L69.0021 72.7133L69.1448 72.7659ZM50.5869 150.138C48.1202 147.884 45.9049 144.935 46.1903 141.753C46.6388 136.772 49.3433 132.626 50.8043 130.716C51.6477 137.514 52.0312 144.348 51.9527 151.183C51.511 150.868 51.0489 150.512 50.5869 150.138ZM132.504 103.651L132.606 103.808L132.511 103.738L132.504 103.651Z" fill="url(#paint2_linear)"/>
<path d="M125.634 182.138L128.019 244.188C128.019 244.188 129.215 253.42 130.404 255.983C131.593 258.547 136.968 306.745 136.968 306.745L119.661 311.872C119.661 311.872 115.482 295.978 114.904 292.386C114.327 288.795 112.519 283.154 112.519 283.154C112.519 283.154 108.34 266.22 108.938 258.541C109.536 250.862 88.6472 206.745 88.6472 206.745C88.6472 206.745 76.1167 219.592 73.6976 252.877C71.2785 286.162 69.5185 291.849 69.5185 291.849C69.5185 291.849 72.5016 309.799 69.5185 311.849C66.5354 313.899 51.613 310.313 51.613 310.313C51.613 310.313 53.4001 286.214 51.613 280.573C49.8258 274.932 53.4001 244.164 53.4001 244.164C53.4001 244.164 42.086 176.526 56.4104 163.166L118.472 159.592L125.634 182.138Z" fill="#3B477B"/>
<g opacity="0.1">
<path opacity="0.1" d="M133.387 306.745C133.387 306.745 128.019 258.541 126.823 255.978C125.627 253.414 124.438 244.182 124.438 244.182L122.053 182.138L114.986 159.779L118.499 159.575L125.661 182.138L128.046 244.188C128.046 244.188 129.242 253.42 130.431 255.983C131.621 258.547 136.968 306.745 136.968 306.745L119.661 311.872L119.403 310.886L133.387 306.745Z" fill="black"/>
<path opacity="0.1" d="M65.9578 311.878C68.9409 309.829 65.9578 291.878 65.9578 291.878C65.9578 291.878 67.7449 286.237 70.1369 252.906C72.5288 219.575 85.0865 206.775 85.0865 206.775C85.0865 206.775 85.5893 207.832 86.4455 209.648C82.7285 215.055 75.5119 228.468 73.7655 252.929C71.3804 286.261 69.5864 291.902 69.5864 291.902C69.5864 291.902 72.5696 309.852 69.5864 311.902C68.6555 312.544 66.5557 312.632 64.1162 312.456C64.7775 312.402 65.4115 312.203 65.9578 311.878V311.878Z" fill="black"/>
</g>
<path d="M94.9064 56.1627C94.9064 56.1627 90.1497 74.6211 103.258 84.3671C116.366 94.1131 72.2238 101.804 64.4704 93.5992C56.717 85.3948 69.8386 81.2897 69.8386 81.2897C69.8386 81.2897 76.4029 76.6766 69.8386 62.8313L94.9064 56.1627Z" fill="#E0A17E"/>
<path d="M95.7958 81.6301L80.2822 95.9892L68.2546 82.2316L58.1976 123.691L61.7787 171.855C61.7787 171.855 90.4208 178.524 106.532 165.7L101.776 121.087L95.7958 81.6301Z" fill="#F0F1F5"/>
<path opacity="0.1" d="M96.985 169.834L99.3566 176.526C99.3566 176.526 71.3125 180.614 61.7583 178.576L64.1434 171.399C64.1434 171.399 90.4208 177.011 96.985 169.834Z" fill="black"/>
<path d="M96.985 168.807L99.3566 175.475C99.3566 175.475 71.3125 179.563 61.7583 177.525L64.1434 170.348C64.1434 170.348 90.4208 175.983 96.985 168.807Z" fill="#1A2246"/>
<path d="M96.2008 76.8039C96.2008 76.8039 105.15 85.0083 118.877 85.5222C132.603 86.036 134.39 100.407 134.39 100.407L139.147 138.363C139.147 138.363 127.806 134.275 125.42 125.032L122.437 131.7C122.437 131.7 132.603 167.56 145.134 180.909C145.134 180.909 139.765 196.296 113.508 194.24C113.508 194.24 99.1839 188.6 99.7819 174.24L95.0932 151.794C93.4415 143.896 92.7583 135.872 93.0546 127.852L96.2008 76.8039Z" fill="#293158"/>
<path opacity="0.1" d="M69.967 80.5323C69.967 80.5323 63.2872 87.1892 54.2019 90.4301C51.3623 91.4579 48.824 93.0154 46.7708 94.9898C44.7177 96.9642 43.201 99.3061 42.3306 101.846C41.0693 105.581 39.1758 109.136 36.7109 112.398C35.5149 113.934 30.1466 134.961 26.5655 139.067C22.9844 143.172 40.89 169.321 48.6434 171.376C48.6434 171.376 45.6603 157.017 57.5928 155.481C57.5928 155.481 46.8494 149.84 47.4474 143.172C48.0454 136.503 52.8157 131.376 52.8157 131.376C52.8157 131.376 56.9948 157.531 51.0285 177.017C45.0623 196.503 48.6434 197.017 48.6434 197.017C48.6434 197.017 73.1064 207.271 69.5321 159.061C65.9578 110.851 68.9341 92.906 68.9341 92.906L69.967 80.5323Z" fill="black"/>
<path d="M47.4542 170.343C47.4542 170.343 45.0963 158.997 52.9584 155.399C52.7002 162.191 51.844 169.461 49.8462 175.983C43.8799 195.47 47.461 195.983 47.461 195.983C48.0852 196.232 48.7361 196.427 49.4045 196.567C55.1261 197.799 71.3057 197.864 68.3429 158.027C64.7618 109.823 67.7449 91.8724 67.7449 91.8724L70.1301 80.0768C70.1301 80.0768 62.0913 86.1498 53.006 89.3907C50.1665 90.4189 47.6285 91.9764 45.5754 93.9508C43.5223 95.9251 42.0055 98.2669 41.1346 100.807C39.87 104.541 37.9768 108.096 35.5149 111.359C34.319 112.894 28.9507 133.922 25.3696 138.027C22.3728 141.461 34.4277 160.345 42.9829 167.604C44.6546 169.034 46.1903 170.01 47.4542 170.343ZM47.1213 146.045C46.4645 144.823 46.1704 143.481 46.265 142.138C46.7067 137.221 49.4249 133.14 50.8111 131.341C51.3071 130.699 51.6333 130.348 51.6333 130.348C52.6684 137.636 53.1383 144.975 53.0399 152.316C50.9538 150.833 48.4327 148.602 47.1213 146.051V146.045Z" fill="#293158"/>
<path d="M81.18 73.0853C92.056 73.0853 100.873 65.5088 100.873 56.1627C100.873 46.8166 92.056 39.2401 81.18 39.2401C70.304 39.2401 61.4873 46.8166 61.4873 56.1627C61.4873 65.5088 70.304 73.0853 81.18 73.0853Z" fill="#E0A17E"/>
<g opacity="0.1">
<path opacity="0.1" d="M138.769 181.116C126.239 167.785 116.093 131.884 116.093 131.884L119.063 125.216C119.321 126.203 119.689 127.168 120.164 128.094L118.465 131.884C118.465 131.884 128.617 167.767 141.148 181.116C141.148 181.116 136.248 195.131 113.001 194.611C134.196 194.132 138.769 181.116 138.769 181.116Z" fill="black"/>
</g>
<path d="M141.746 107.785C141.746 107.785 139.958 92.9119 141.746 85.7352C143.533 78.5586 120.857 86.763 125.634 96.5031C130.411 106.243 135.181 111.89 135.181 111.89L141.746 107.785Z" fill="#E0A17E"/>
<path opacity="0.1" d="M142.337 101.116L149.499 124.194C149.499 124.194 150.097 136.503 142.337 139.067C134.577 141.63 125.029 126.757 125.029 126.757L129.786 105.221C129.786 105.221 139.952 114.961 142.337 101.116Z" fill="black"/>
<path d="M142.337 102.144L149.499 125.221C149.499 125.221 150.097 137.531 142.337 140.094C134.577 142.658 125.029 127.785 125.029 127.785L129.786 106.249C129.786 106.249 139.952 115.989 142.337 102.144Z" fill="#293158"/>
<path opacity="0.02" d="M142.337 102.144L149.499 125.221C149.499 125.221 150.097 137.531 142.337 140.094C134.577 142.658 125.029 127.785 125.029 127.785L129.786 106.249C129.786 106.249 139.952 115.989 142.337 102.144Z" fill="black"/>
<path opacity="0.1" d="M49.8462 175.983C43.8799 195.47 47.461 195.983 47.461 195.983C48.0852 196.232 48.7361 196.427 49.4045 196.567C55.4183 186.167 56.4376 169.18 55.9144 154.524C55.9144 154.407 55.9144 154.29 55.9144 154.167C55.5559 144.91 54.6327 135.675 53.1487 126.5C52.4691 127.008 51.6673 128.76 50.8315 131.341C51.3275 130.699 51.6537 130.348 51.6537 130.348C52.6888 137.636 53.1587 144.975 53.0603 152.316C53.1547 153.346 53.1274 154.381 52.9788 155.405C52.7002 162.191 51.844 169.461 49.8462 175.983Z" fill="black"/>
<path d="M47.1281 166.5L47.8076 167.236C50.0954 169.718 52.0895 172.39 53.7602 175.213C57.3346 181.887 69.7699 163.639 59.1557 158.278C57.4161 157.408 55.7581 156.62 54.1951 155.943L52.9924 155.411C48.0862 157.642 47.1348 162.862 47.1281 166.5Z" fill="#E0A17E"/>
<path opacity="0.1" d="M47.1281 166.5L47.8076 167.236C47.8076 167.236 48.0862 157.683 54.2019 155.937L52.9992 155.405C48.0862 157.642 47.1348 162.862 47.1281 166.5Z" fill="black"/>
<path d="M81.4178 50.9189C82.5254 50.5919 83.6874 50.0722 84.8154 50.3933C85.3297 50.571 85.7932 50.8419 86.1745 51.1875C87.7306 52.4488 89.2663 53.9145 91.3525 54.3058C92.6423 54.4745 93.9581 54.4249 95.2258 54.1598C97.4275 53.8269 99.6903 53.4707 101.607 52.4897C106.037 50.2182 107.451 45.2897 107.722 40.8634C107.817 39.3744 107.457 37.4474 105.758 37.1379C103.584 36.7408 101.994 39.5787 99.799 39.2693C99.1289 39.1309 98.5256 38.8166 98.073 38.37C96.5781 37.0853 95.5656 35.4503 94.0706 34.1364C91.743 32.2687 88.7285 31.1594 85.5493 31.0007C82.3925 30.8523 79.2275 31.1081 76.1582 31.7598C74.4672 31.9989 72.8344 32.4784 71.3268 33.1788C70.5758 33.534 69.9255 34.0276 69.4227 34.6243C68.9198 35.221 68.5769 35.9058 68.4184 36.6298C68.2689 37.6225 68.5815 38.6444 68.3505 39.6196C68.0311 40.9685 66.7536 41.9904 65.3809 42.7028C64.0083 43.4152 62.4861 43.8707 61.195 44.7058C59.1335 46.0829 57.7041 48.0413 57.1586 50.2357C56.6272 52.4181 56.5535 54.6646 56.9412 56.8693C57.4767 60.6979 58.7105 64.4302 60.5971 67.9291C61.2208 69.1548 62.0247 70.3067 62.989 71.3569C64.402 72.6956 66.0286 73.8556 67.8204 74.8021C68.5475 75.2225 69.4173 75.6605 70.2463 75.4269C70.4961 75.3499 70.7266 75.233 70.9259 75.0824C72.6179 73.8678 72.781 71.6663 72.2849 69.8269C71.7889 67.9875 70.8511 66.2065 70.7492 64.3145C70.6844 63.7837 70.8076 63.2484 71.1026 62.7788C71.4568 62.3983 71.8578 62.0518 72.2985 61.7452C72.8848 61.1796 73.3454 60.5265 73.6576 59.8182C74.5614 58.0663 75.4787 56.2269 75.6962 54.2941C75.8885 52.7113 75.486 51.1172 74.5478 49.7452C75.464 50.454 76.5858 50.9372 77.795 51.1437C79.0041 51.3503 80.2557 51.2726 81.4178 50.9189V50.9189Z" fill="#463E3B"/>
<path d="M606.558 237.108C606.558 237.108 575.123 222.416 579.132 276.658C579.132 276.658 605.355 275.853 614.658 257.47C616.477 253.895 616.706 249.871 615.303 246.161C613.901 242.45 610.963 239.31 607.047 237.336L606.558 237.108Z" fill="#85D459"/>
<path d="M606.748 237.771C606.748 237.771 602.671 265.929 578.779 277.228" stroke="black" stroke-miterlimit="10"/>
</g>
<defs>
<linearGradient id="paint0_linear" x1="246.614" y1="102.68" x2="246.614" y2="0" gradientUnits="userSpaceOnUse">
<stop stop-color="#808080" stop-opacity="0.25"/>
<stop offset="0.54" stop-color="#808080" stop-opacity="0.12"/>
<stop offset="1" stop-color="#808080" stop-opacity="0.1"/>
</linearGradient>
<linearGradient id="paint1_linear" x1="1.97958e-06" y1="313.313" x2="621.001" y2="321.589" gradientUnits="userSpaceOnUse">
<stop stop-color="#649DAF"/>
<stop offset="1" stop-color="#535461" stop-opacity="0"/>
</linearGradient>
<linearGradient id="paint2_linear" x1="-32443.1" y1="30016.9" x2="-32443.1" y2="19472.1" gradientUnits="userSpaceOnUse">
<stop stop-color="#808080" stop-opacity="0.25"/>
<stop offset="0.54" stop-color="#808080" stop-opacity="0.12"/>
<stop offset="1" stop-color="#808080" stop-opacity="0.1"/>
</linearGradient>
<clipPath id="clip0">
<rect width="615" height="400" fill="white"/>
</clipPath>
</defs>
</svg>
